<svg xmlns="http://www.w3.org/2000/svg" width="24" height="19" viewBox="0 0 24 19" fill="none">
<g clip-path="url(#clip0_1_3588)">
<path d="M1.77137 10.9743L3.14377 13.3247L1.90991 13.3212L0.537068 10.9707L1.77137 10.9743Z" fill="black"/>
<path d="M19.0816 0.317383L20.4544 2.66785L19.8337 3.73726L18.4608 1.38679L19.0816 0.317383Z" fill="white"/>
<path d="M1.76508 13.1149L3.13792 15.4654L1.90362 15.4623L0.530778 13.1118L1.76508 13.1149Z" fill="black"/>
<path d="M20.9294 1.39307L22.3023 3.74354L21.682 4.81205L20.3096 2.46158L20.9294 1.39307Z" fill="white"/>
<path d="M2.37904 14.1876L3.75188 16.5381L2.51757 16.5345L1.14473 14.1841L2.37904 14.1876Z" fill="black"/>
<path d="M21.5444 2.46533L22.9168 4.8158L22.297 5.88476L20.9241 3.53429L21.5444 2.46533Z" fill="white"/>
<path d="M4.22792 15.2635L5.60031 17.6139L3.1317 17.6068L1.75886 15.2563L4.22792 15.2635Z" fill="black"/>
<path d="M22.1579 3.5376L23.5308 5.88807L22.2902 8.02599L20.9174 5.67552L22.1579 3.5376Z" fill="white"/>
<path d="M10.399 15.2808L11.7718 17.6312L11.1515 18.6997L9.7787 16.3493L10.399 15.2808Z" fill="white"/>
<path d="M9.7786 16.3494L11.1514 18.6998L4.98036 18.6825L3.60752 16.332L9.7786 16.3494Z" fill="black"/>
<path d="M22.1521 5.67871L23.5245 8.02918L20.424 13.3731L19.0512 11.0226L22.1521 5.67871Z" fill="white"/>
<path d="M19.0511 11.0226L20.4239 13.3731L19.1896 13.3695L17.8168 11.019L19.0511 11.0226Z" fill="black"/>
<path d="M13.4874 14.2187L14.8603 16.5692L14.24 17.6377L12.8676 15.2873L13.4874 14.2187Z" fill="white"/>
<path d="M12.8675 15.2874L14.2399 17.6379L11.7717 17.6312L10.3989 15.2808L12.8675 15.2874Z" fill="black"/>
<path d="M15.3424 13.1538L16.7152 15.5043L16.095 16.5732L14.7221 14.2228L15.3424 13.1538Z" fill="white"/>
<path d="M14.7222 14.2223L16.095 16.5728L14.8603 16.5692L13.4874 14.2187L14.7222 14.2223Z" fill="black"/>
<path d="M17.8169 11.019L19.1897 13.3695L17.9492 15.507L16.5768 13.1565L17.8169 11.019Z" fill="white"/>
<path d="M19.0511 11.0228L17.8168 11.0192L16.5767 13.1567L15.3424 13.1536L14.7221 14.2225L13.4873 14.219L12.8675 15.2875L10.3989 15.2808L9.77861 16.3493L3.60753 16.332L4.22781 15.2635L1.75876 15.2564L2.37904 14.1878L1.14473 14.1843L1.76501 13.1149L0.530708 13.1118L1.77127 10.9743L0.536962 10.9707L3.63792 5.62682L4.87178 5.63038L6.11234 3.49246L7.34665 3.49601L7.96693 2.42705L9.20079 2.43061L9.82107 1.3621L12.2897 1.36877L12.91 0.299804L19.0815 0.317146L18.4608 1.38655L20.9294 1.39322L20.3095 2.46174L21.5443 2.4653L20.924 3.53426L22.1579 3.53781L20.9173 5.67573L22.1521 5.67885L19.0511 11.0228Z" fill="#AAFF00"/>
<path d="M16.5768 13.1569L17.9492 15.5074L16.7153 15.5043L15.3425 13.1538L16.5768 13.1569Z" fill="black"/>
<path d="M14.2439 9.17695L11.8355 11.1125L9.25669 11.1051L9.08688 9.16267L9.88935 8.51784L11.0351 8.52101L10.2327 9.16584L10.3268 10.245L11.7593 10.2492L13.0982 9.17378L13.0035 8.09465L8.99219 8.08354L8.82239 6.14112L11.2309 4.20557L13.8096 4.21297L13.9795 6.1554L13.177 6.80076L12.0307 6.79759L12.8337 6.15223L12.739 5.0731L11.3065 5.06887L9.96817 6.14429L10.0629 7.22342L14.0741 7.23505L14.2439 9.17695Z" fill="black"/>
</g>
<defs>
<clipPath id="clip0_1_3588">
<rect width="18.4" height="23" fill="white" transform="translate(23.5308 0.299805) rotate(90)"/>
</clipPath>
</defs>
</svg>