<svg xmlns="http://www.w3.org/2000/svg" width="302" height="136" viewBox="0 0 302 136" fill="none">
<g clip-path="url(#clip0_2327_35808)">
<rect width="302" height="136" fill="#0A0A0A"/>
<path opacity="0.3" d="M38.002 16.1064L38.002 86.8248L108.72 157.543L108.72 86.8248L38.002 16.1064Z" fill="#6600FF"/>
<path opacity="0.2" d="M108.721 16.1064L108.721 86.8248L179.439 157.543L179.439 86.8248L108.721 16.1064Z" fill="#6600FF"/>
<path d="M222.725 -88.8379L-40.2671 -88.8379L-303.259 174.154L-40.2671 174.154L222.725 -88.8379Z" fill="#6600FF"/>
<rect x="232.801" y="70.1074" width="20.0255" height="20.0115" transform="rotate(90 232.801 70.1074)" fill="white" fill-opacity="0.04"/>
<rect x="232.801" y="70.1074" width="20.0255" height="20.0115" transform="rotate(90 232.801 70.1074)" stroke="#3C3C3C" stroke-width="0.251667"/>
<path fill-rule="evenodd" clip-rule="evenodd" d="M220.056 80.12C220.056 78.8214 220.949 77.7326 222.15 77.4411L222.15 76.1191C220.232 76.4295 218.768 78.1026 218.768 80.12C218.768 82.1374 220.232 83.8105 222.15 84.1209L222.15 82.799C220.949 82.5074 220.056 81.4186 220.056 80.12ZM226.821 80.12C226.821 82.1374 225.356 83.8105 223.439 84.1209L223.439 82.799C224.64 82.5074 225.532 81.4186 225.532 80.12C225.532 78.8214 224.64 77.7326 223.439 77.4411L223.439 76.1191C225.356 76.4295 226.821 78.1026 226.821 80.12Z" fill="#6154F3"/>
<rect x="212.789" y="110.158" width="20.0255" height="20.0115" transform="rotate(90 212.789 110.158)" fill="white" fill-opacity="0.04"/>
<rect x="212.789" y="110.158" width="20.0255" height="20.0115" transform="rotate(90 212.789 110.158)" stroke="#3C3C3C" stroke-width="0.251667"/>
<g clip-path="url(#clip1_2327_35808)">
<mask id="mask0_2327_35808" style="mask-type:luminance" maskUnits="userSpaceOnUse" x="198" y="116" width="9" height="9">
<path d="M206.809 116.145L198.756 116.145L198.756 124.198L206.809 124.198L206.809 116.145Z" fill="white"/>
</mask>
<g mask="url(#mask0_2327_35808)">
<path fill-rule="evenodd" clip-rule="evenodd" d="M198.756 116.145L198.756 118.158L202.783 120.171L198.756 122.185L198.756 124.198L202.783 122.185L202.783 124.198L206.809 122.185L206.809 120.171L206.809 118.158L202.783 116.145L202.783 118.158L198.756 116.145ZM202.783 118.158L202.783 120.171L202.783 122.185L206.809 120.171L202.783 118.158Z" fill="#6154F3"/>
</g>
</g>
<rect x="292.836" y="90.1328" width="20.0255" height="20.0115" transform="rotate(90 292.836 90.1328)" fill="white" fill-opacity="0.04"/>
<rect x="292.836" y="90.1328" width="20.0255" height="20.0115" transform="rotate(90 292.836 90.1328)" stroke="#3C3C3C" stroke-width="0.251667"/>
<g clip-path="url(#clip2_2327_35808)">
<mask id="mask1_2327_35808" style="mask-type:luminance" maskUnits="userSpaceOnUse" x="278" y="96" width="9" height="9">
<path d="M286.856 96.1191L278.803 96.1191L278.803 104.172L286.856 104.172L286.856 96.1191Z" fill="white"/>
</mask>
<g mask="url(#mask1_2327_35808)">
<path fill-rule="evenodd" clip-rule="evenodd" d="M286.856 98.1325L286.856 96.1191L282.829 96.1191L282.829 98.1317C282.829 97.0201 281.928 96.1191 280.816 96.1191L278.803 96.1191L278.803 100.146L280.816 100.146C279.704 100.146 278.803 101.047 278.803 102.159L278.803 104.172L282.829 104.172L282.829 102.159C282.829 103.271 283.731 104.172 284.843 104.172L286.856 104.172L286.856 100.146L284.844 100.146C285.955 100.145 286.856 99.2441 286.856 98.1325Z" fill="#3D3D3D"/>
</g>
</g>
<rect x="212.789" y="130.184" width="20.0255" height="20.0115" transform="rotate(90 212.789 130.184)" fill="white" fill-opacity="0.04"/>
<rect x="212.789" y="130.184" width="20.0255" height="20.0115" transform="rotate(90 212.789 130.184)" stroke="#3C3C3C" stroke-width="0.251667"/>
<rect x="272.824" y="70.1074" width="20.0115" height="20.0255" transform="rotate(-180 272.824 70.1074)" fill="white" fill-opacity="0.04"/>
<rect x="272.824" y="70.1074" width="20.0115" height="20.0255" transform="rotate(-180 272.824 70.1074)" stroke="#3C3C3C" stroke-width="0.251667"/>
<g clip-path="url(#clip3_2327_35808)">
<mask id="mask2_2327_35808" style="mask-type:luminance" maskUnits="userSpaceOnUse" x="258" y="56" width="9" height="9">
<path d="M266.846 64.1217L266.846 56.0684L258.792 56.0684L258.792 64.1217L266.846 64.1217Z" fill="white"/>
</mask>
<g mask="url(#mask2_2327_35808)">
<path fill-rule="evenodd" clip-rule="evenodd" d="M266.846 56.0684L264.832 56.0684L262.819 60.095L260.806 56.0684L258.792 56.0684L260.806 60.095L258.792 60.095L260.806 64.1217L262.819 64.1217L264.832 64.1217L266.846 60.095L264.832 60.095L266.846 56.0684ZM264.832 60.095L262.819 60.095L260.806 60.095L262.819 64.1217L264.832 60.095Z" fill="#3D3D3D"/>
</g>
</g>
<rect x="212.789" y="70.1074" width="20.0115" height="20.0255" transform="rotate(-180 212.789 70.1074)" fill="white" fill-opacity="0.04"/>
<rect x="212.789" y="70.1074" width="20.0115" height="20.0255" transform="rotate(-180 212.789 70.1074)" stroke="#3C3C3C" stroke-width="0.251667"/>
<mask id="mask3_2327_35808" style="mask-type:luminance" maskUnits="userSpaceOnUse" x="198" y="56" width="9" height="9">
<path d="M206.809 56.0684L198.756 56.0684L198.756 64.1217L206.809 64.1217L206.809 56.0684Z" fill="white"/>
</mask>
<g mask="url(#mask3_2327_35808)">
<path fill-rule="evenodd" clip-rule="evenodd" d="M206.809 56.0684L206.809 58.4844L206.809 64.1217L204.393 64.1217L204.393 61.3044C204.392 62.8605 203.131 64.1217 201.575 64.1217C200.018 64.1217 198.756 62.8597 198.756 61.303C198.756 59.7463 200.018 58.4844 201.575 58.4844C203.131 58.4844 204.392 59.7456 204.393 61.3017L204.393 58.4844L201.575 58.4844L198.756 58.4844L198.756 56.0684L204.393 56.0684L206.809 56.0684Z" fill="#6154F3"/>
</g>
<rect x="252.812" y="150.209" width="20.0115" height="20.0255" transform="rotate(-180 252.812 150.209)" fill="white" fill-opacity="0.04"/>
<rect x="252.812" y="150.209" width="20.0115" height="20.0255" transform="rotate(-180 252.812 150.209)" stroke="#3C3C3C" stroke-width="0.251667"/>
<rect x="272.824" y="110.158" width="20.0255" height="20.0115" transform="rotate(90 272.824 110.158)" fill="white" fill-opacity="0.04"/>
<rect x="272.824" y="110.158" width="20.0255" height="20.0115" transform="rotate(90 272.824 110.158)" stroke="#3C3C3C" stroke-width="0.251667"/>
<mask id="mask4_2327_35808" style="mask-type:luminance" maskUnits="userSpaceOnUse" x="258" y="116" width="9" height="9">
<path d="M266.844 116.145L258.791 116.145L258.791 124.198L266.844 124.198L266.844 116.145Z" fill="white"/>
</mask>
<g mask="url(#mask4_2327_35808)">
<path fill-rule="evenodd" clip-rule="evenodd" d="M262.818 116.145L258.791 116.145L262.818 120.171L258.791 120.171L262.818 124.198L266.844 124.198L262.818 120.171L266.844 120.171L262.818 116.145Z" fill="#6154F3"/>
</g>
<rect x="292.836" y="50.082" width="20.0255" height="20.0115" transform="rotate(90 292.836 50.082)" fill="white" fill-opacity="0.04"/>
<rect x="292.836" y="50.082" width="20.0255" height="20.0115" transform="rotate(90 292.836 50.082)" stroke="#3C3C3C" stroke-width="0.251667"/>
<path d="M285.85 54.0547L282.83 57.0747L279.81 54.0547" stroke="#3C3C3C" stroke-width="0.503333"/>
<path d="M285.85 57.0742L282.83 60.0942L279.81 57.0742" stroke="#3C3C3C" stroke-width="0.503333"/>
<path d="M285.85 60.0947L282.83 63.1147L279.81 60.0947" stroke="#3C3C3C" stroke-width="0.503333"/>
<path d="M285.85 63.1143L282.83 66.1343L279.81 63.1143" stroke="#3C3C3C" stroke-width="0.503333"/>
<rect x="292.836" y="110.158" width="20.0255" height="20.0115" transform="rotate(90 292.836 110.158)" fill="white" fill-opacity="0.04"/>
<rect x="292.836" y="110.158" width="20.0255" height="20.0115" transform="rotate(90 292.836 110.158)" stroke="#3C3C3C" stroke-width="0.251667"/>
<path d="M285.85 114.131L282.83 117.151L279.81 114.131" stroke="#3C3C3C" stroke-width="0.503333"/>
<path d="M285.85 117.15L282.83 120.17L279.81 117.15" stroke="#3C3C3C" stroke-width="0.503333"/>
<path d="M285.85 120.171L282.83 123.191L279.81 120.171" stroke="#3C3C3C" stroke-width="0.503333"/>
<path d="M285.85 123.19L282.83 126.21L279.81 123.19" stroke="#3C3C3C" stroke-width="0.503333"/>
<rect x="292.836" y="130.184" width="20.0255" height="20.0115" transform="rotate(90 292.836 130.184)" fill="white" fill-opacity="0.04"/>
<rect x="292.836" y="130.184" width="20.0255" height="20.0115" transform="rotate(90 292.836 130.184)" stroke="#3C3C3C" stroke-width="0.251667"/>
<path d="M285.85 134.156L282.83 137.176L279.81 134.156" stroke="white" stroke-opacity="0.8" stroke-width="0.503333"/>
<rect x="292.836" y="70.1074" width="20.0255" height="20.0115" transform="rotate(90 292.836 70.1074)" fill="white" fill-opacity="0.04"/>
<rect x="292.836" y="70.1074" width="20.0255" height="20.0115" transform="rotate(90 292.836 70.1074)" stroke="#3C3C3C" stroke-width="0.251667"/>
<path d="M285.85 74.0801L282.83 77.1001L279.81 74.0801" stroke="white" stroke-opacity="0.8" stroke-width="0.503333"/>
<path d="M285.85 77.0996L282.83 80.1196L279.81 77.0996" stroke="white" stroke-opacity="0.5" stroke-width="0.503333"/>
<path d="M285.85 80.1201L282.83 83.1401L279.81 80.1201" stroke="white" stroke-opacity="0.4" stroke-width="0.503333"/>
<path d="M285.85 83.1396L282.83 86.1596L279.81 83.1396" stroke="white" stroke-opacity="0.1" stroke-width="0.503333"/>
<rect x="292.836" y="70.1074" width="20.0255" height="20.0115" transform="rotate(90 292.836 70.1074)" fill="white" fill-opacity="0.04"/>
<rect x="292.836" y="70.1074" width="20.0255" height="20.0115" transform="rotate(90 292.836 70.1074)" stroke="#3C3C3C" stroke-width="0.251667"/>
<path d="M285.85 74.0801L282.83 77.1001L279.81 74.0801" stroke="white" stroke-opacity="0.8" stroke-width="0.503333"/>
<path d="M285.85 77.0996L282.83 80.1196L279.81 77.0996" stroke="white" stroke-opacity="0.5" stroke-width="0.503333"/>
<path d="M285.85 80.1201L282.83 83.1401L279.81 80.1201" stroke="white" stroke-opacity="0.4" stroke-width="0.503333"/>
<path d="M285.85 83.1396L282.83 86.1596L279.81 83.1396" stroke="white" stroke-opacity="0.1" stroke-width="0.503333"/>
<rect x="212.789" y="70.1074" width="20.0255" height="20.0115" transform="rotate(90 212.789 70.1074)" fill="white" fill-opacity="0.04"/>
<rect x="212.789" y="70.1074" width="20.0255" height="20.0115" transform="rotate(90 212.789 70.1074)" stroke="#3C3C3C" stroke-width="0.251667"/>
<path d="M205.803 74.0801L202.783 77.1001L199.763 74.0801" stroke="white" stroke-opacity="0.8" stroke-width="0.503333"/>
<path d="M205.803 77.0996L202.783 80.1196L199.763 77.0996" stroke="white" stroke-opacity="0.5" stroke-width="0.503333"/>
<path d="M205.803 80.1201L202.783 83.1401L199.763 80.1201" stroke="white" stroke-opacity="0.4" stroke-width="0.503333"/>
<path d="M205.803 83.1396L202.783 86.1596L199.763 83.1396" stroke="white" stroke-opacity="0.1" stroke-width="0.503333"/>
<rect x="212.789" y="90.1328" width="20.0255" height="20.0115" transform="rotate(90 212.789 90.1328)" fill="white" fill-opacity="0.04"/>
<rect x="212.789" y="90.1328" width="20.0255" height="20.0115" transform="rotate(90 212.789 90.1328)" stroke="#3C3C3C" stroke-width="0.251667"/>
<path d="M205.803 94.1055L202.783 97.1255L199.763 94.1055" stroke="#3C3C3C" stroke-width="0.503333"/>
<path d="M205.803 97.125L202.783 100.145L199.763 97.125" stroke="#3C3C3C" stroke-width="0.503333"/>
<path d="M205.803 100.146L202.783 103.166L199.763 100.146" stroke="#3C3C3C" stroke-width="0.503333"/>
<path d="M205.803 103.165L202.783 106.185L199.763 103.165" stroke="#3C3C3C" stroke-width="0.503333"/>
<rect x="212.789" y="110.158" width="20.0115" height="20.0255" fill="white" fill-opacity="0.04"/>
<rect x="212.789" y="110.158" width="20.0115" height="20.0255" stroke="#3C3C3C" stroke-width="0.251667"/>
<path d="M216.754 117.151L219.774 120.171L216.754 123.191" stroke="#3C3C3C" stroke-width="0.503333"/>
<path d="M219.773 117.151L222.793 120.171L219.773 123.191" stroke="#3C3C3C" stroke-width="0.503333"/>
<path d="M222.793 117.151L225.813 120.171L222.793 123.191" stroke="#3C3C3C" stroke-width="0.503333"/>
<path d="M225.814 117.151L228.834 120.171L225.814 123.191" stroke="#3C3C3C" stroke-width="0.503333"/>
<rect x="232.801" y="110.158" width="20.0115" height="20.0255" fill="white" fill-opacity="0.04"/>
<rect x="232.801" y="110.158" width="20.0115" height="20.0255" stroke="#3C3C3C" stroke-width="0.251667"/>
<path d="M236.766 117.151L239.786 120.171L236.766 123.191" stroke="white" stroke-opacity="0.8" stroke-width="0.503333"/>
<path d="M239.785 117.151L242.805 120.171L239.785 123.191" stroke="white" stroke-opacity="0.5" stroke-width="0.503333"/>
<path d="M242.805 117.151L245.825 120.171L242.805 123.191" stroke="white" stroke-opacity="0.4" stroke-width="0.503333"/>
<path d="M245.826 117.151L248.846 120.171L245.826 123.191" stroke="white" stroke-opacity="0.1" stroke-width="0.503333"/>
<rect x="252.812" y="110.158" width="20.0255" height="20.0115" transform="rotate(-90 252.812 110.158)" fill="white" fill-opacity="0.04"/>
<rect x="252.812" y="110.158" width="20.0255" height="20.0115" transform="rotate(-90 252.812 110.158)" stroke="#3C3C3C" stroke-width="0.251667"/>
<path d="M259.799 106.186L262.819 103.166L265.839 106.186" stroke="white" stroke-opacity="0.8" stroke-width="0.503333"/>
<path d="M259.799 103.166L262.819 100.146L265.839 103.166" stroke="white" stroke-opacity="0.5" stroke-width="0.503333"/>
<path d="M259.799 100.146L262.819 97.1255L265.839 100.146" stroke="white" stroke-opacity="0.4" stroke-width="0.503333"/>
<path d="M259.799 97.126L262.819 94.106L265.839 97.126" stroke="white" stroke-opacity="0.1" stroke-width="0.503333"/>
<rect x="252.812" y="90.1328" width="20.0255" height="20.0115" transform="rotate(-90 252.812 90.1328)" fill="white" fill-opacity="0.04"/>
<rect x="252.812" y="90.1328" width="20.0255" height="20.0115" transform="rotate(-90 252.812 90.1328)" stroke="#3C3C3C" stroke-width="0.251667"/>
<path d="M259.799 86.1602L262.819 83.1402L265.839 86.1602" stroke="#3C3C3C" stroke-width="0.503333"/>
<path d="M259.799 83.1406L262.819 80.1206L265.839 83.1406" stroke="#3C3C3C" stroke-width="0.503333"/>
<path d="M259.799 80.1201L262.819 77.1001L265.839 80.1201" stroke="#3C3C3C" stroke-width="0.503333"/>
<path d="M259.799 77.1006L262.819 74.0806L265.839 77.1006" stroke="#3C3C3C" stroke-width="0.503333"/>
<rect x="252.812" y="90.1328" width="20.0115" height="20.0255" transform="rotate(180 252.812 90.1328)" fill="white" fill-opacity="0.04"/>
<rect x="252.812" y="90.1328" width="20.0115" height="20.0255" transform="rotate(180 252.812 90.1328)" stroke="#3C3C3C" stroke-width="0.251667"/>
<path d="M248.848 83.1396L245.828 80.1197L248.848 77.0997" stroke="#3C3C3C" stroke-width="0.503333"/>
<path d="M245.828 83.1396L242.808 80.1197L245.828 77.0997" stroke="#3C3C3C" stroke-width="0.503333"/>
<path d="M242.809 83.1396L239.789 80.1197L242.809 77.0997" stroke="#3C3C3C" stroke-width="0.503333"/>
<path d="M239.787 83.1396L236.767 80.1197L239.787 77.0997" stroke="#3C3C3C" stroke-width="0.503333"/>
<path d="M24.5504 40.1016H21.5104V28.4816H16.9904V25.7416H29.0904V28.4816H24.5504V40.1016ZM33.0438 34.2816V40.1016H30.2638V25.7416H33.0438V30.8216C33.7838 29.8416 34.7038 29.2216 36.1038 29.2216C38.2438 29.2216 39.7238 30.6216 39.7238 33.2016V40.1016H36.9638V34.1416C36.9638 32.5616 36.3438 31.6816 35.0838 31.6816C33.9838 31.6816 33.0438 32.5616 33.0438 34.2816ZM46.3593 40.2816C43.1593 40.2816 41.0193 38.0616 41.0193 34.7216C41.0193 31.5416 43.2393 29.2216 46.3193 29.2216C49.6993 29.2216 51.9393 31.9616 51.4393 35.4416H43.8593C44.0393 37.1816 44.8793 38.1416 46.2993 38.1416C47.5193 38.1416 48.3393 37.5416 48.6593 36.4816H51.4193C50.8193 38.9016 48.9593 40.2816 46.3593 40.2816ZM46.2593 31.2616C44.9593 31.2616 44.1393 32.1016 43.8993 33.6816H48.4993C48.4193 32.2016 47.5793 31.2616 46.2593 31.2616ZM66.521 40.1016L65.441 37.0216H59.861L58.761 40.1016H55.701L61.101 25.7416H64.421L69.781 40.1016H66.521ZM62.681 29.0616L60.721 34.6016H64.601L62.681 29.0616ZM75.0593 44.1616C72.1793 44.1616 70.2593 42.6016 70.1393 40.1416H72.8193C72.9393 41.3616 73.7193 42.0016 75.0393 42.0016C76.5793 42.0016 77.3793 41.1816 77.3793 39.6416V38.0816C76.7993 39.1016 75.6993 39.7016 74.3993 39.7016C71.7793 39.7016 69.8193 37.4816 69.8193 34.4616C69.8193 31.3616 71.6593 29.2216 74.2993 29.2216C75.7393 29.2216 76.8193 29.7816 77.5993 30.8816V29.4216H80.1393V39.6016C80.1393 42.4416 78.2193 44.1616 75.0593 44.1616ZM72.5993 34.4616C72.5993 36.2016 73.4993 37.3016 74.9393 37.3016C76.3993 37.3016 77.3593 36.1616 77.3593 34.4816C77.3593 32.7416 76.3993 31.6216 74.9393 31.6216C73.5193 31.6216 72.5993 32.7216 72.5993 34.4616ZM86.7882 44.1616C83.9082 44.1616 81.9882 42.6016 81.8682 40.1416H84.5482C84.6682 41.3616 85.4482 42.0016 86.7682 42.0016C88.3082 42.0016 89.1082 41.1816 89.1082 39.6416V38.0816C88.5282 39.1016 87.4282 39.7016 86.1282 39.7016C83.5082 39.7016 81.5482 37.4816 81.5482 34.4616C81.5482 31.3616 83.3882 29.2216 86.0282 29.2216C87.4682 29.2216 88.5482 29.7816 89.3282 30.8816V29.4216H91.8682V39.6016C91.8682 42.4416 89.9482 44.1616 86.7882 44.1616ZM84.3282 34.4616C84.3282 36.2016 85.2282 37.3016 86.6682 37.3016C88.1282 37.3016 89.0882 36.1616 89.0882 34.4816C89.0882 32.7416 88.1282 31.6216 86.6682 31.6216C85.2482 31.6216 84.3282 32.7216 84.3282 34.4616ZM96.7571 34.9216V40.1016H93.9771V29.4216H96.5371V31.4816C97.3171 30.1216 98.9771 29.3016 100.697 29.3016V32.1816C98.3371 32.0016 96.7571 32.5616 96.7571 34.9216ZM106.303 40.2816C103.103 40.2816 100.963 38.0616 100.963 34.7216C100.963 31.5416 103.183 29.2216 106.263 29.2216C109.643 29.2216 111.883 31.9616 111.383 35.4416H103.803C103.983 37.1816 104.823 38.1416 106.243 38.1416C107.463 38.1416 108.283 37.5416 108.603 36.4816H111.363C110.763 38.9016 108.903 40.2816 106.303 40.2816ZM106.203 31.2616C104.903 31.2616 104.083 32.1016 103.843 33.6816H108.443C108.363 32.2016 107.523 31.2616 106.203 31.2616ZM117.19 44.1616C114.31 44.1616 112.39 42.6016 112.27 40.1416H114.95C115.07 41.3616 115.85 42.0016 117.17 42.0016C118.71 42.0016 119.51 41.1816 119.51 39.6416V38.0816C118.93 39.1016 117.83 39.7016 116.53 39.7016C113.91 39.7016 111.95 37.4816 111.95 34.4616C111.95 31.3616 113.79 29.2216 116.43 29.2216C117.87 29.2216 118.95 29.7816 119.73 30.8816V29.4216H122.27V39.6016C122.27 42.4416 120.35 44.1616 117.19 44.1616ZM114.73 34.4616C114.73 36.2016 115.63 37.3016 117.07 37.3016C118.53 37.3016 119.49 36.1616 119.49 34.4816C119.49 32.7416 118.53 31.6216 117.07 31.6216C115.65 31.6216 114.73 32.7216 114.73 34.4616ZM130.739 40.1016V38.7816C130.039 39.7816 128.979 40.3016 127.519 40.3016C125.299 40.3016 123.819 39.0016 123.819 37.0016C123.819 34.9216 125.499 33.8016 128.619 33.8016C129.219 33.8016 129.739 33.8416 130.399 33.9216V33.2816C130.399 32.0816 129.719 31.3816 128.559 31.3816C127.359 31.3816 126.639 32.0816 126.539 33.2816H124.039C124.199 30.8216 125.979 29.2216 128.559 29.2216C131.359 29.2216 132.999 30.7616 132.999 33.3816V40.1016H130.739ZM126.439 36.9216C126.439 37.8216 127.079 38.3816 128.119 38.3816C129.539 38.3816 130.399 37.6016 130.399 36.3616V35.6016C129.739 35.5016 129.279 35.4616 128.799 35.4616C127.219 35.4616 126.439 35.9616 126.439 36.9216ZM141.478 37.4016V39.8216C140.798 40.1616 140.158 40.3016 139.338 40.3016C137.138 40.3016 135.758 39.0416 135.758 36.6416V31.8016H133.598V29.4216H135.758V26.2616H138.518V29.4216H141.578V31.8016H138.518V36.0016C138.518 37.2416 139.078 37.7416 140.078 37.7416C140.598 37.7416 141.078 37.6216 141.478 37.4016ZM146.096 26.9416C146.096 27.8816 145.336 28.5816 144.236 28.5816C143.156 28.5816 142.396 27.8816 142.396 26.9416C142.396 25.9616 143.156 25.2616 144.236 25.2616C145.336 25.2616 146.096 25.9616 146.096 26.9416ZM145.656 40.1016H142.876V29.4216H145.656V40.1016ZM152.449 40.3016C149.349 40.3016 147.029 37.8616 147.029 34.7616C147.029 31.6416 149.349 29.2216 152.449 29.2216C155.549 29.2216 157.869 31.6416 157.869 34.7616C157.869 37.8616 155.549 40.3016 152.449 40.3016ZM152.449 37.8416C153.829 37.8416 155.009 36.7416 155.009 34.7616C155.009 32.7816 153.829 31.7016 152.449 31.7016C151.069 31.7016 149.889 32.7816 149.889 34.7616C149.889 36.7416 151.069 37.8416 152.449 37.8416ZM162.024 34.2816V40.1016H159.244V29.4216H161.804V30.9416C162.584 29.8816 163.684 29.2216 165.084 29.2216C167.224 29.2216 168.704 30.6216 168.704 33.2016V40.1016H165.944V34.1416C165.944 32.5616 165.324 31.6816 164.064 31.6816C162.964 31.6816 162.024 32.5616 162.024 34.2816ZM184.319 40.1016L183.239 37.0216H177.659L176.559 40.1016H173.499L178.899 25.7416H182.219L187.579 40.1016H184.319ZM180.479 29.0616L178.519 34.6016H182.399L180.479 29.0616ZM192.857 44.1616C189.977 44.1616 188.057 42.6016 187.937 40.1416H190.617C190.737 41.3616 191.517 42.0016 192.837 42.0016C194.377 42.0016 195.177 41.1816 195.177 39.6416V38.0816C194.597 39.1016 193.497 39.7016 192.197 39.7016C189.577 39.7016 187.617 37.4816 187.617 34.4616C187.617 31.3616 189.457 29.2216 192.097 29.2216C193.537 29.2216 194.617 29.7816 195.397 30.8816V29.4216H197.937V39.6016C197.937 42.4416 196.017 44.1616 192.857 44.1616ZM190.397 34.4616C190.397 36.2016 191.297 37.3016 192.737 37.3016C194.197 37.3016 195.157 36.1616 195.157 34.4816C195.157 32.7416 194.197 31.6216 192.737 31.6216C191.317 31.6216 190.397 32.7216 190.397 34.4616ZM204.686 40.2816C201.486 40.2816 199.346 38.0616 199.346 34.7216C199.346 31.5416 201.566 29.2216 204.646 29.2216C208.026 29.2216 210.266 31.9616 209.766 35.4416H202.186C202.366 37.1816 203.206 38.1416 204.626 38.1416C205.846 38.1416 206.666 37.5416 206.986 36.4816H209.746C209.146 38.9016 207.286 40.2816 204.686 40.2816ZM204.586 31.2616C203.286 31.2616 202.466 32.1016 202.226 33.6816H206.826C206.746 32.2016 205.906 31.2616 204.586 31.2616ZM21.1104 48.9416C21.1104 49.8816 20.3504 50.5816 19.2504 50.5816C18.1704 50.5816 17.4104 49.8816 17.4104 48.9416C17.4104 47.9616 18.1704 47.2616 19.2504 47.2616C20.3504 47.2616 21.1104 47.9616 21.1104 48.9416ZM20.6704 62.1016H17.8904V51.4216H20.6704V62.1016ZM31.7643 58.6816C31.7643 60.9216 30.0643 62.3016 27.0243 62.3016C23.9843 62.3016 22.2843 60.8416 22.0643 58.4616H24.7243C24.7443 59.5616 25.6843 60.2616 27.0643 60.2616C28.1443 60.2616 28.9643 59.9216 28.9643 59.1616C28.9643 58.4816 28.5243 58.2016 27.5043 58.0016L25.5843 57.6416C23.6643 57.3016 22.5043 56.2416 22.5043 54.5816C22.5043 52.6016 24.2043 51.2216 26.8643 51.2216C29.5443 51.2216 31.3843 52.6416 31.5843 54.9416H28.9243C28.8243 53.9016 28.0443 53.2616 26.8643 53.2616C25.8443 53.2616 25.1643 53.6416 25.1643 54.3216C25.1643 54.9616 25.6043 55.2216 26.5643 55.4016L28.6243 55.7816C30.7043 56.1816 31.7643 57.1416 31.7643 58.6816ZM43.642 62.4016C39.602 62.4016 36.442 59.1216 36.442 54.9016C36.442 50.7016 39.602 47.4416 43.642 47.4416C47.422 47.4416 50.382 49.9616 50.882 53.6416H47.662C47.322 51.5816 45.722 50.1616 43.682 50.1616C41.222 50.1616 39.562 52.1016 39.562 54.9016C39.562 57.7216 41.222 59.6816 43.682 59.6816C45.722 59.6816 47.302 58.2416 47.662 56.1816H50.882C50.382 59.9016 47.422 62.4016 43.642 62.4016ZM57.0846 62.3016C53.9846 62.3016 51.6646 59.8616 51.6646 56.7616C51.6646 53.6416 53.9846 51.2216 57.0846 51.2216C60.1846 51.2216 62.5046 53.6416 62.5046 56.7616C62.5046 59.8616 60.1846 62.3016 57.0846 62.3016ZM57.0846 59.8416C58.4646 59.8416 59.6446 58.7416 59.6446 56.7616C59.6446 54.7816 58.4646 53.7016 57.0846 53.7016C55.7046 53.7016 54.5246 54.7816 54.5246 56.7616C54.5246 58.7416 55.7046 59.8416 57.0846 59.8416ZM66.6587 62.1016H63.8787V51.4216H66.4387V52.9416C67.2187 51.8616 68.2187 51.2216 69.6387 51.2216C71.0987 51.2216 72.2187 51.9016 72.7587 53.1216C73.5987 51.9416 74.6787 51.2216 76.2787 51.2216C78.4387 51.2216 79.8987 52.6416 79.8987 55.2016V62.1016H77.1387V56.0816C77.1387 54.5816 76.4987 53.6816 75.2787 53.6816C74.1787 53.6816 73.2787 54.5416 73.2787 56.1416V62.1016H70.5187V56.0816C70.5187 54.5816 69.8787 53.6816 68.6587 53.6816C67.5387 53.6816 66.6587 54.5416 66.6587 56.1416V62.1016ZM85.0971 48.9416C85.0971 49.8816 84.3371 50.5816 83.2371 50.5816C82.1571 50.5816 81.3971 49.8816 81.3971 48.9416C81.3971 47.9616 82.1571 47.2616 83.2371 47.2616C84.3371 47.2616 85.0971 47.9616 85.0971 48.9416ZM84.6571 62.1016H81.8771V51.4216H84.6571V62.1016ZM89.511 56.2816V62.1016H86.731V51.4216H89.291V52.9416C90.071 51.8816 91.171 51.2216 92.571 51.2216C94.711 51.2216 96.191 52.6216 96.191 55.2016V62.1016H93.431V56.1416C93.431 54.5616 92.811 53.6816 91.551 53.6816C90.451 53.6816 89.511 54.5616 89.511 56.2816ZM102.726 66.1616C99.8465 66.1616 97.9265 64.6016 97.8065 62.1416H100.486C100.606 63.3616 101.386 64.0016 102.706 64.0016C104.246 64.0016 105.046 63.1816 105.046 61.6416V60.0816C104.466 61.1016 103.366 61.7016 102.066 61.7016C99.4465 61.7016 97.4865 59.4816 97.4865 56.4616C97.4865 53.3616 99.3265 51.2216 101.966 51.2216C103.406 51.2216 104.486 51.7816 105.266 52.8816V51.4216H107.806V61.6016C107.806 64.4416 105.886 66.1616 102.726 66.1616ZM100.266 56.4616C100.266 58.2016 101.166 59.3016 102.606 59.3016C104.066 59.3016 105.026 58.1616 105.026 56.4816C105.026 54.7416 104.066 53.6216 102.606 53.6216C101.186 53.6216 100.266 54.7216 100.266 56.4616Z" fill="white"/>
<path d="M18.8429 76.1348H18.1785V72.396H16.7652V71.798H20.2563V72.396H18.8429V76.1348ZM21.4051 74.3288V76.1348H20.7951V71.798H21.4051V73.447C21.6165 73.1027 21.9427 72.8732 22.3836 72.8732C23.042 72.8732 23.4769 73.296 23.4769 74.063V76.1348H22.8668V74.2684C22.8668 73.7188 22.6252 73.4107 22.1722 73.4107C21.7555 73.4107 21.4051 73.761 21.4051 74.3288ZM25.6037 76.1952C24.6796 76.1952 24.0575 75.5247 24.0575 74.516C24.0575 73.5678 24.7037 72.8732 25.5856 72.8732C26.5399 72.8732 27.1741 73.6463 27.0654 74.6852H24.6796C24.7279 75.3375 25.0541 75.718 25.5916 75.718C26.0446 75.718 26.3587 75.4704 26.4614 75.0536H27.0654C26.9083 75.7663 26.3587 76.1952 25.6037 76.1952ZM25.5735 73.3322C25.0843 73.3322 24.7521 73.6825 24.6856 74.2805H26.4191C26.3889 73.6886 26.0688 73.3322 25.5735 73.3322ZM32.0083 76.1348L31.6157 75.0596H29.7433L29.3447 76.1348H28.6742L30.3352 71.798H31.0661L32.715 76.1348H32.0083ZM30.6856 72.5228L29.9426 74.5221H31.4164L30.6856 72.5228ZM34.4033 77.3669C33.5638 77.3669 33.0202 76.92 32.9839 76.1952H33.5758C33.6121 76.6421 33.902 76.8837 34.3973 76.8837C34.9469 76.8837 35.2368 76.5878 35.2368 76.0381V75.4583C35.0556 75.8448 34.6932 76.0683 34.2584 76.0683C33.4611 76.0683 32.8933 75.41 32.8933 74.4677C32.8933 73.5134 33.4369 72.8732 34.2402 72.8732C34.6993 72.8732 35.0617 73.0966 35.2791 73.5013V72.9336H35.8469V76.026C35.8469 76.8656 35.3093 77.3669 34.4033 77.3669ZM33.5094 74.4677C33.5094 75.1321 33.8356 75.5368 34.3671 75.5368C34.8865 75.5368 35.2368 75.12 35.2368 74.4858C35.2368 73.8214 34.8926 73.3986 34.3671 73.3986C33.8416 73.3986 33.5094 73.8094 33.5094 74.4677ZM37.9719 77.3669C37.1323 77.3669 36.5887 76.92 36.5525 76.1952H37.1444C37.1806 76.6421 37.4706 76.8837 37.9658 76.8837C38.5155 76.8837 38.8054 76.5878 38.8054 76.0381V75.4583C38.6242 75.8448 38.2618 76.0683 37.8269 76.0683C37.0296 76.0683 36.4619 75.41 36.4619 74.4677C36.4619 73.5134 37.0055 72.8732 37.8088 72.8732C38.2678 72.8732 38.6302 73.0966 38.8477 73.5013V72.9336H39.4154V76.026C39.4154 76.8656 38.8779 77.3669 37.9719 77.3669ZM37.078 74.4677C37.078 75.1321 37.4041 75.5368 37.9356 75.5368C38.4551 75.5368 38.8054 75.12 38.8054 74.4858C38.8054 73.8214 38.4611 73.3986 37.9356 73.3986C37.4102 73.3986 37.078 73.8094 37.078 74.4677ZM40.87 74.4979V76.1348H40.26V72.9336H40.8277V73.61C41.0512 73.1691 41.5344 72.8913 42.0599 72.8913V73.5255C41.3713 73.4892 40.87 73.7912 40.87 74.4979ZM43.8476 76.1952C42.9234 76.1952 42.3013 75.5247 42.3013 74.516C42.3013 73.5678 42.9476 72.8732 43.8294 72.8732C44.7838 72.8732 45.418 73.6463 45.3092 74.6852H42.9234C42.9718 75.3375 43.2979 75.718 43.8355 75.718C44.2885 75.718 44.6026 75.4704 44.7052 75.0536H45.3092C45.1522 75.7663 44.6026 76.1952 43.8476 76.1952ZM43.8174 73.3322C43.3281 73.3322 42.9959 73.6825 42.9295 74.2805H44.663C44.6328 73.6886 44.3126 73.3322 43.8174 73.3322ZM47.1793 77.3669C46.3398 77.3669 45.7962 76.92 45.7599 76.1952H46.3519C46.3881 76.6421 46.678 76.8837 47.1733 76.8837C47.7229 76.8837 48.0129 76.5878 48.0129 76.0381V75.4583C47.8317 75.8448 47.4693 76.0683 47.0344 76.0683C46.2371 76.0683 45.6693 75.41 45.6693 74.4677C45.6693 73.5134 46.2129 72.8732 47.0163 72.8732C47.4753 72.8732 47.8377 73.0966 48.0551 73.5013V72.9336H48.6229V76.026C48.6229 76.8656 48.0853 77.3669 47.1793 77.3669ZM46.2854 74.4677C46.2854 75.1321 46.6116 75.5368 47.1431 75.5368C47.6625 75.5368 48.0129 75.12 48.0129 74.4858C48.0129 73.8214 47.6686 73.3986 47.1431 73.3986C46.6176 73.3986 46.2854 73.8094 46.2854 74.4677ZM51.4063 76.1348V75.6395C51.2069 75.9958 50.8506 76.1952 50.3795 76.1952C49.7151 76.1952 49.2802 75.8146 49.2802 75.2288C49.2802 74.6006 49.7815 74.2744 50.7358 74.2744C50.9231 74.2744 51.0741 74.2805 51.3338 74.3107V74.0751C51.3338 73.6161 51.0861 73.3564 50.6633 73.3564C50.2164 73.3564 49.9446 73.6221 49.9265 74.0691H49.3708C49.401 73.3503 49.9144 72.8732 50.6633 72.8732C51.4546 72.8732 51.9136 73.3201 51.9136 74.0812V76.1348H51.4063ZM49.86 75.2106C49.86 75.5428 50.1077 75.7603 50.5003 75.7603C51.0137 75.7603 51.3338 75.4402 51.3338 74.9509V74.6912C51.0982 74.661 50.9291 74.655 50.7721 74.655C50.162 74.655 49.86 74.8362 49.86 75.2106ZM54.5057 75.5428V76.0804C54.3185 76.165 54.1554 76.1952 53.9621 76.1952C53.3702 76.1952 52.9595 75.875 52.9595 75.1684V73.453H52.2528V72.9336H52.9595V71.9853H53.5695V72.9336H54.5359V73.453H53.5695V75.0294C53.5695 75.4704 53.7809 75.6274 54.1071 75.6274C54.252 75.6274 54.3789 75.6032 54.5057 75.5428ZM55.861 72.1906C55.861 72.4202 55.6798 72.5953 55.4201 72.5953C55.1604 72.5953 54.9732 72.4202 54.9732 72.1906C54.9732 71.9551 55.1604 71.786 55.4201 71.786C55.6798 71.786 55.861 71.9551 55.861 72.1906ZM55.7282 76.1348H55.1181V72.9336H55.7282V76.1348ZM57.9159 76.1952C57.0099 76.1952 56.3455 75.4824 56.3455 74.5342C56.3455 73.5859 57.0099 72.8732 57.9159 72.8732C58.8219 72.8732 59.4863 73.5859 59.4863 74.5342C59.4863 75.4824 58.8219 76.1952 57.9159 76.1952ZM57.9159 75.6576C58.4414 75.6576 58.8581 75.2348 58.8581 74.5342C58.8581 73.8335 58.4414 73.4168 57.9159 73.4168C57.3904 73.4168 56.9797 73.8335 56.9797 74.5342C56.9797 75.2348 57.3904 75.6576 57.9159 75.6576ZM60.7182 74.3288V76.1348H60.1082V72.9336H60.676V73.4651C60.8934 73.1087 61.2558 72.8732 61.6967 72.8732C62.3551 72.8732 62.79 73.296 62.79 74.063V76.1348H62.1799V74.2684C62.1799 73.7188 61.9383 73.4107 61.4853 73.4107C61.0686 73.4107 60.7182 73.761 60.7182 74.3288ZM67.5381 76.1348H64.9107V71.798H65.5751V75.5368H67.5381V76.1348ZM70.0807 76.1348V75.6395C69.8814 75.9958 69.525 76.1952 69.0539 76.1952C68.3895 76.1952 67.9546 75.8146 67.9546 75.2288C67.9546 74.6006 68.4559 74.2744 69.4103 74.2744C69.5975 74.2744 69.7485 74.2805 70.0082 74.3107V74.0751C70.0082 73.6161 69.7606 73.3564 69.3378 73.3564C68.8908 73.3564 68.619 73.6221 68.6009 74.0691H68.0452C68.0754 73.3503 68.5888 72.8732 69.3378 72.8732C70.129 72.8732 70.5881 73.3201 70.5881 74.0812V76.1348H70.0807ZM68.5345 75.2106C68.5345 75.5428 68.7821 75.7603 69.1747 75.7603C69.6881 75.7603 70.0082 75.4402 70.0082 74.9509V74.6912C69.7727 74.661 69.6035 74.655 69.4465 74.655C68.8365 74.655 68.5345 74.8362 68.5345 75.2106ZM73.961 72.9336L72.3604 77.3005H71.696L72.1551 76.0925L70.8927 72.9336H71.5511L72.4812 75.3737L73.3449 72.9336H73.961ZM75.6107 76.1952C74.6865 76.1952 74.0644 75.5247 74.0644 74.516C74.0644 73.5678 74.7107 72.8732 75.5925 72.8732C76.5469 72.8732 77.1811 73.6463 77.0723 74.6852H74.6865C74.7349 75.3375 75.061 75.718 75.5986 75.718C76.0516 75.718 76.3657 75.4704 76.4683 75.0536H77.0723C76.9153 75.7663 76.3657 76.1952 75.6107 76.1952ZM75.5805 73.3322C75.0912 73.3322 74.759 73.6825 74.6926 74.2805H76.4261C76.3959 73.6886 76.0757 73.3322 75.5805 73.3322ZM78.331 74.4979V76.1348H77.7209V72.9336H78.2887V73.61C78.5122 73.1691 78.9954 72.8913 79.5209 72.8913V73.5255C78.8323 73.4892 78.331 73.7912 78.331 74.4979ZM83.8027 75.1804C83.8027 75.8086 83.3134 76.1952 82.4618 76.1952C81.6162 76.1952 81.1149 75.7784 81.0545 75.0898H81.6404C81.6645 75.4885 81.9846 75.7361 82.4739 75.7361C82.9027 75.7361 83.1866 75.5851 83.1866 75.2831C83.1866 75.0174 83.0235 74.9026 82.6249 74.8241L82.1054 74.7274C81.5135 74.6127 81.1813 74.3107 81.1813 73.8275C81.1813 73.2658 81.6706 72.8732 82.4135 72.8732C83.1806 72.8732 83.7 73.2839 83.7544 73.9422H83.1685C83.1322 73.5557 82.8484 73.3322 82.4195 73.3322C82.033 73.3322 81.7732 73.4953 81.7732 73.7731C81.7732 74.0328 81.9363 74.1536 82.3229 74.2261L82.8665 74.3288C83.5007 74.4436 83.8027 74.7214 83.8027 75.1804ZM85.8096 76.1952C84.9036 76.1952 84.2392 75.4824 84.2392 74.5342C84.2392 73.5859 84.9036 72.8732 85.8096 72.8732C86.7156 72.8732 87.38 73.5859 87.38 74.5342C87.38 75.4824 86.7156 76.1952 85.8096 76.1952ZM85.8096 75.6576C86.3351 75.6576 86.7519 75.2348 86.7519 74.5342C86.7519 73.8335 86.3351 73.4168 85.8096 73.4168C85.2841 73.4168 84.8734 73.8335 84.8734 74.5342C84.8734 75.2348 85.2841 75.6576 85.8096 75.6576ZM88.618 76.1348H88.0019V71.798H88.618V76.1348ZM92.1223 72.9336L90.9204 76.1348H90.256L89.054 72.9336H89.7124L90.6002 75.4341L91.5002 72.9336H92.1223ZM93.7719 76.1952C92.8478 76.1952 92.2257 75.5247 92.2257 74.516C92.2257 73.5678 92.872 72.8732 93.7538 72.8732C94.7081 72.8732 95.3423 73.6463 95.2336 74.6852H92.8478C92.8961 75.3375 93.2223 75.718 93.7599 75.718C94.2129 75.718 94.5269 75.4704 94.6296 75.0536H95.2336C95.0766 75.7663 94.5269 76.1952 93.7719 76.1952ZM93.7417 73.3322C93.2525 73.3322 92.9203 73.6825 92.8539 74.2805H94.5873C94.5571 73.6886 94.237 73.3322 93.7417 73.3322ZM98.419 75.1804C98.419 75.8086 97.9298 76.1952 97.0781 76.1952C96.2325 76.1952 95.7312 75.7784 95.6708 75.0898H96.2567C96.2809 75.4885 96.601 75.7361 97.0902 75.7361C97.5191 75.7361 97.8029 75.5851 97.8029 75.2831C97.8029 75.0174 97.6399 74.9026 97.2412 74.8241L96.7218 74.7274C96.1299 74.6127 95.7977 74.3107 95.7977 73.8275C95.7977 73.2658 96.2869 72.8732 97.0298 72.8732C97.7969 72.8732 98.3163 73.2839 98.3707 73.9422H97.7848C97.7486 73.5557 97.4647 73.3322 97.0359 73.3322C96.6493 73.3322 96.3896 73.4953 96.3896 73.7731C96.3896 74.0328 96.5527 74.1536 96.9392 74.2261L97.4828 74.3288C98.117 74.4436 98.419 74.7214 98.419 75.1804ZM103.404 74.5342C103.404 75.4945 102.848 76.1952 101.984 76.1952C101.531 76.1952 101.145 75.9656 100.915 75.561V76.1348H100.347V71.798H100.957V73.4832C101.181 73.0906 101.549 72.8732 101.984 72.8732C102.842 72.8732 103.404 73.5617 103.404 74.5342ZM102.769 74.5342C102.769 73.8094 102.389 73.4107 101.863 73.4107C101.356 73.4107 100.957 73.8033 100.957 74.5221C100.957 75.2288 101.344 75.6516 101.863 75.6516C102.389 75.6516 102.769 75.2469 102.769 74.5342ZM104.638 76.1348H104.022V71.798H104.638V76.1348ZM106.826 76.1952C105.92 76.1952 105.255 75.4824 105.255 74.5342C105.255 73.5859 105.92 72.8732 106.826 72.8732C107.732 72.8732 108.396 73.5859 108.396 74.5342C108.396 75.4824 107.732 76.1952 106.826 76.1952ZM106.826 75.6576C107.351 75.6576 107.768 75.2348 107.768 74.5342C107.768 73.8335 107.351 73.4168 106.826 73.4168C106.3 73.4168 105.89 73.8335 105.89 74.5342C105.89 75.2348 106.3 75.6576 106.826 75.6576ZM110.28 76.2012C109.405 76.2012 108.789 75.5126 108.789 74.5342C108.789 73.5678 109.417 72.8732 110.28 72.8732C111.072 72.8732 111.645 73.3986 111.76 74.2322H111.12C111.054 73.7188 110.733 73.4107 110.286 73.4107C109.761 73.4107 109.417 73.8577 109.417 74.5342C109.417 75.2167 109.761 75.6576 110.286 75.6576C110.739 75.6576 111.054 75.3556 111.126 74.8362H111.76C111.651 75.6818 111.084 76.2012 110.28 76.2012ZM112.984 76.1348H112.374V71.798H112.984V74.365L114.355 72.9336H115.074L113.594 74.4858L115.213 76.1348H114.428L112.984 74.6187V76.1348ZM116.751 76.2012C115.875 76.2012 115.259 75.5126 115.259 74.5342C115.259 73.5678 115.887 72.8732 116.751 72.8732C117.542 72.8732 118.116 73.3986 118.231 74.2322H117.591C117.524 73.7188 117.204 73.4107 116.757 73.4107C116.232 73.4107 115.887 73.8577 115.887 74.5342C115.887 75.2167 116.232 75.6576 116.757 75.6576C117.21 75.6576 117.524 75.3556 117.597 74.8362H118.231C118.122 75.6818 117.554 76.2012 116.751 76.2012ZM119.455 74.3288V76.1348H118.845V71.798H119.455V73.447C119.666 73.1027 119.992 72.8732 120.433 72.8732C121.092 72.8732 121.527 73.296 121.527 74.063V76.1348H120.917V74.2684C120.917 73.7188 120.675 73.4107 120.222 73.4107C119.805 73.4107 119.455 73.761 119.455 74.3288ZM124.276 76.1348V75.6395C124.076 75.9958 123.72 76.1952 123.249 76.1952C122.584 76.1952 122.149 75.8146 122.149 75.2288C122.149 74.6006 122.651 74.2744 123.605 74.2744C123.792 74.2744 123.943 74.2805 124.203 74.3107V74.0751C124.203 73.6161 123.955 73.3564 123.533 73.3564C123.086 73.3564 122.814 73.6221 122.796 74.0691H122.24C122.27 73.3503 122.784 72.8732 123.533 72.8732C124.324 72.8732 124.783 73.3201 124.783 74.0812V76.1348H124.276ZM122.729 75.2106C122.729 75.5428 122.977 75.7603 123.37 75.7603C123.883 75.7603 124.203 75.4402 124.203 74.9509V74.6912C123.968 74.661 123.798 74.655 123.641 74.655C123.031 74.655 122.729 74.8362 122.729 75.2106ZM126.341 72.1906C126.341 72.4202 126.16 72.5953 125.901 72.5953C125.641 72.5953 125.454 72.4202 125.454 72.1906C125.454 71.9551 125.641 71.786 125.901 71.786C126.16 71.786 126.341 71.9551 126.341 72.1906ZM126.209 76.1348H125.599V72.9336H126.209V76.1348ZM127.666 74.3288V76.1348H127.055V72.9336H127.623V73.4651C127.841 73.1087 128.203 72.8732 128.644 72.8732C129.302 72.8732 129.737 73.296 129.737 74.063V76.1348H129.127V74.2684C129.127 73.7188 128.886 73.4107 128.433 73.4107C128.016 73.4107 127.666 73.761 127.666 74.3288ZM17.9732 84.1348H17.3631V81.453H16.6564V80.9336H17.3631V80.698C17.3631 80.0819 17.6953 79.7437 18.2993 79.7437C18.4805 79.7437 18.6255 79.7739 18.7463 79.8222V80.3175C18.6496 80.2752 18.5409 80.2631 18.4322 80.2631C18.1423 80.2631 17.9732 80.396 17.9732 80.704V80.9336H18.8671V81.453H17.9732V84.1348ZM19.9423 82.4979V84.1348H19.3323V80.9336H19.9001V81.61C20.1235 81.1691 20.6067 80.8913 21.1322 80.8913V81.5255C20.4437 81.4892 19.9423 81.7912 19.9423 82.4979ZM23.5538 84.1348V83.6395C23.3545 83.9958 22.9981 84.1952 22.527 84.1952C21.8626 84.1952 21.4277 83.8146 21.4277 83.2288C21.4277 82.6006 21.9291 82.2744 22.8834 82.2744C23.0706 82.2744 23.2216 82.2805 23.4813 82.3107V82.0751C23.4813 81.6161 23.2337 81.3564 22.8109 81.3564C22.3639 81.3564 22.0921 81.6221 22.074 82.0691H21.5183C21.5485 81.3503 22.0619 80.8732 22.8109 80.8732C23.6021 80.8732 24.0612 81.3201 24.0612 82.0812V84.1348H23.5538ZM22.0076 83.2106C22.0076 83.5428 22.2552 83.7603 22.6478 83.7603C23.1612 83.7603 23.4813 83.4402 23.4813 82.9509V82.6912C23.2458 82.661 23.0767 82.655 22.9196 82.655C22.3096 82.655 22.0076 82.8362 22.0076 83.2106ZM26.1573 85.3669C25.3177 85.3669 24.7741 84.92 24.7379 84.1952H25.3298C25.3661 84.6421 25.656 84.8837 26.1513 84.8837C26.7009 84.8837 26.9908 84.5878 26.9908 84.0381V83.4583C26.8096 83.8448 26.4472 84.0683 26.0123 84.0683C25.2151 84.0683 24.6473 83.41 24.6473 82.4677C24.6473 81.5134 25.1909 80.8732 25.9942 80.8732C26.4533 80.8732 26.8157 81.0966 27.0331 81.5013V80.9336H27.6009V84.026C27.6009 84.8656 27.0633 85.3669 26.1573 85.3669ZM25.2634 82.4677C25.2634 83.1321 25.5895 83.5368 26.1211 83.5368C26.6405 83.5368 26.9908 83.12 26.9908 82.4858C26.9908 81.8214 26.6465 81.3986 26.1211 81.3986C25.5956 81.3986 25.2634 81.8094 25.2634 82.4677ZM29.0554 84.1348H28.4454V80.9336H29.0131V81.4651C29.2306 81.0966 29.5749 80.8732 30.0158 80.8732C30.4869 80.8732 30.8433 81.1148 30.9882 81.5376C31.2117 81.1268 31.5801 80.8732 32.0694 80.8732C32.7277 80.8732 33.1505 81.302 33.1505 82.063V84.1348H32.5405V82.2563C32.5405 81.7248 32.3049 81.4107 31.858 81.4107C31.4412 81.4107 31.103 81.761 31.103 82.2986V84.1348H30.4929V82.2563C30.4929 81.7248 30.2574 81.4107 29.8104 81.4107C29.3876 81.4107 29.0554 81.761 29.0554 82.2986V84.1348ZM35.283 84.1952C34.3589 84.1952 33.7368 83.5247 33.7368 82.516C33.7368 81.5678 34.3831 80.8732 35.2649 80.8732C36.2192 80.8732 36.8534 81.6463 36.7447 82.6852H34.3589C34.4072 83.3375 34.7334 83.718 35.271 83.718C35.724 83.718 36.038 83.4704 36.1407 83.0536H36.7447C36.5877 83.7663 36.038 84.1952 35.283 84.1952ZM35.2528 81.3322C34.7636 81.3322 34.4314 81.6825 34.365 82.2805H36.0984C36.0682 81.6886 35.7481 81.3322 35.2528 81.3322ZM38.0033 82.3288V84.1348H37.3933V80.9336H37.9611V81.4651C38.1785 81.1087 38.5409 80.8732 38.9818 80.8732C39.6402 80.8732 40.0751 81.296 40.0751 82.063V84.1348H39.465V82.2684C39.465 81.7188 39.2234 81.4107 38.7704 81.4107C38.3537 81.4107 38.0033 81.761 38.0033 82.3288ZM42.6793 83.5428V84.0804C42.4921 84.165 42.329 84.1952 42.1357 84.1952C41.5438 84.1952 41.1331 83.875 41.1331 83.1684V81.453H40.4264V80.9336H41.1331V79.9853H41.7431V80.9336H42.7095V81.453H41.7431V83.0294C41.7431 83.4704 41.9545 83.6274 42.2807 83.6274C42.4257 83.6274 42.5525 83.6032 42.6793 83.5428ZM45.2306 84.1348V83.6395C45.0313 83.9958 44.6749 84.1952 44.2038 84.1952C43.5394 84.1952 43.1045 83.8146 43.1045 83.2288C43.1045 82.6006 43.6058 82.2744 44.5601 82.2744C44.7474 82.2744 44.8984 82.2805 45.1581 82.3107V82.0751C45.1581 81.6161 44.9105 81.3564 44.4877 81.3564C44.0407 81.3564 43.7689 81.6221 43.7508 82.0691H43.1951C43.2253 81.3503 43.7387 80.8732 44.4877 80.8732C45.2789 80.8732 45.7379 81.3201 45.7379 82.0812V84.1348H45.2306ZM43.6843 83.2106C43.6843 83.5428 43.932 83.7603 44.3246 83.7603C44.838 83.7603 45.1581 83.4402 45.1581 82.9509V82.6912C44.9225 82.661 44.7534 82.655 44.5964 82.655C43.9863 82.655 43.6843 82.8362 43.6843 83.2106ZM48.3301 83.5428V84.0804C48.1428 84.165 47.9797 84.1952 47.7865 84.1952C47.1945 84.1952 46.7838 83.875 46.7838 83.1684V81.453H46.0771V80.9336H46.7838V79.9853H47.3939V80.9336H48.3603V81.453H47.3939V83.0294C47.3939 83.4704 47.6053 83.6274 47.9314 83.6274C48.0764 83.6274 48.2032 83.6032 48.3301 83.5428ZM49.6854 80.1906C49.6854 80.4202 49.5042 80.5953 49.2445 80.5953C48.9847 80.5953 48.7975 80.4202 48.7975 80.1906C48.7975 79.9551 48.9847 79.786 49.2445 79.786C49.5042 79.786 49.6854 79.9551 49.6854 80.1906ZM49.5525 84.1348H48.9425V80.9336H49.5525V84.1348ZM51.7402 84.1952C50.8342 84.1952 50.1698 83.4824 50.1698 82.5342C50.1698 81.5859 50.8342 80.8732 51.7402 80.8732C52.6462 80.8732 53.3106 81.5859 53.3106 82.5342C53.3106 83.4824 52.6462 84.1952 51.7402 84.1952ZM51.7402 83.6576C52.2657 83.6576 52.6825 83.2348 52.6825 82.5342C52.6825 81.8335 52.2657 81.4168 51.7402 81.4168C51.2148 81.4168 50.804 81.8335 50.804 82.5342C50.804 83.2348 51.2148 83.6576 51.7402 83.6576ZM54.5426 82.3288V84.1348H53.9325V80.9336H54.5003V81.4651C54.7177 81.1087 55.0801 80.8732 55.521 80.8732C56.1794 80.8732 56.6143 81.296 56.6143 82.063V84.1348H56.0042V82.2684C56.0042 81.7188 55.7626 81.4107 55.3096 81.4107C54.8929 81.4107 54.5426 81.761 54.5426 82.3288ZM61.7429 82.5342C61.7429 83.4945 61.1872 84.1952 60.3235 84.1952C59.8705 84.1952 59.484 83.9656 59.2544 83.561V84.1348H58.6867V79.798H59.2967V81.4832C59.5202 81.0906 59.8886 80.8732 60.3235 80.8732C61.1812 80.8732 61.7429 81.5617 61.7429 82.5342ZM61.1087 82.5342C61.1087 81.8094 60.7282 81.4107 60.2027 81.4107C59.6954 81.4107 59.2967 81.8033 59.2967 82.5221C59.2967 83.2288 59.6833 83.6516 60.2027 83.6516C60.7282 83.6516 61.1087 83.2469 61.1087 82.5342ZM64.9187 80.9336L63.3181 85.3005H62.6537L63.1128 84.0925L61.8504 80.9336H62.5088L63.4389 83.3737L64.3026 80.9336H64.9187ZM67.9309 84.1952C67.0068 84.1952 66.3847 83.5247 66.3847 82.516C66.3847 81.5678 67.0309 80.8732 67.9128 80.8732C68.8671 80.8732 69.5013 81.6463 69.3926 82.6852H67.0068C67.0551 83.3375 67.3813 83.718 67.9188 83.718C68.3718 83.718 68.6859 83.4704 68.7886 83.0536H69.3926C69.2355 83.7663 68.6859 84.1952 67.9309 84.1952ZM67.9007 81.3322C67.4115 81.3322 67.0793 81.6825 67.0128 82.2805H68.7463C68.7161 81.6886 68.396 81.3322 67.9007 81.3322ZM70.6512 82.3288V84.1348H70.0412V80.9336H70.6089V81.4651C70.8264 81.1087 71.1888 80.8732 71.6297 80.8732C72.288 80.8732 72.7229 81.296 72.7229 82.063V84.1348H72.1129V82.2684C72.1129 81.7188 71.8713 81.4107 71.4183 81.4107C71.0015 81.4107 70.6512 81.761 70.6512 82.3288ZM75.4719 84.1348V83.6395C75.2726 83.9958 74.9162 84.1952 74.4451 84.1952C73.7807 84.1952 73.3458 83.8146 73.3458 83.2288C73.3458 82.6006 73.8471 82.2744 74.8014 82.2744C74.9887 82.2744 75.1397 82.2805 75.3994 82.3107V82.0751C75.3994 81.6161 75.1518 81.3564 74.729 81.3564C74.282 81.3564 74.0102 81.6221 73.9921 82.0691H73.4364C73.4666 81.3503 73.98 80.8732 74.729 80.8732C75.5202 80.8732 75.9792 81.3201 75.9792 82.0812V84.1348H75.4719ZM73.9256 83.2106C73.9256 83.5428 74.1733 83.7603 74.5659 83.7603C75.0793 83.7603 75.3994 83.4402 75.3994 82.9509V82.6912C75.1638 82.661 74.9947 82.655 74.8377 82.655C74.2276 82.655 73.9256 82.8362 73.9256 83.2106ZM79.8511 82.5342C79.8511 83.4945 79.2954 84.1952 78.4317 84.1952C77.9787 84.1952 77.5922 83.9656 77.3626 83.561V84.1348H76.7949V79.798H77.4049V81.4832C77.6284 81.0906 77.9968 80.8732 78.4317 80.8732C79.2894 80.8732 79.8511 81.5617 79.8511 82.5342ZM79.2169 82.5342C79.2169 81.8094 78.8364 81.4107 78.3109 81.4107C77.8036 81.4107 77.4049 81.8033 77.4049 82.5221C77.4049 83.2288 77.7915 83.6516 78.3109 83.6516C78.8364 83.6516 79.2169 83.2469 79.2169 82.5342ZM81.0857 84.1348H80.4696V79.798H81.0857V84.1348ZM82.6753 80.1906C82.6753 80.4202 82.4941 80.5953 82.2344 80.5953C81.9747 80.5953 81.7875 80.4202 81.7875 80.1906C81.7875 79.9551 81.9747 79.786 82.2344 79.786C82.4941 79.786 82.6753 79.9551 82.6753 80.1906ZM82.5425 84.1348H81.9324V80.9336H82.5425V84.1348ZM83.9994 82.3288V84.1348H83.3893V80.9336H83.9571V81.4651C84.1745 81.1087 84.5369 80.8732 84.9779 80.8732C85.6362 80.8732 86.0711 81.296 86.0711 82.063V84.1348H85.4611V82.2684C85.4611 81.7188 85.2195 81.4107 84.7665 81.4107C84.3497 81.4107 83.9994 81.761 83.9994 82.3288ZM88.1617 85.3669C87.3221 85.3669 86.7785 84.92 86.7423 84.1952H87.3342C87.3704 84.6421 87.6604 84.8837 88.1556 84.8837C88.7053 84.8837 88.9952 84.5878 88.9952 84.0381V83.4583C88.814 83.8448 88.4516 84.0683 88.0167 84.0683C87.2194 84.0683 86.6517 83.41 86.6517 82.4677C86.6517 81.5134 87.1953 80.8732 87.9986 80.8732C88.4576 80.8732 88.82 81.0966 89.0375 81.5013V80.9336H89.6052V84.026C89.6052 84.8656 89.0677 85.3669 88.1617 85.3669ZM87.2678 82.4677C87.2678 83.1321 87.5939 83.5368 88.1254 83.5368C88.6449 83.5368 88.9952 83.12 88.9952 82.4858C88.9952 81.8214 88.6509 81.3986 88.1254 81.3986C87.6 81.3986 87.2678 81.8094 87.2678 82.4677ZM94.2488 83.1804C94.2488 83.8086 93.7596 84.1952 92.9079 84.1952C92.0623 84.1952 91.561 83.7784 91.5006 83.0898H92.0865C92.1107 83.4885 92.4308 83.7361 92.92 83.7361C93.3489 83.7361 93.6327 83.5851 93.6327 83.2831C93.6327 83.0174 93.4697 82.9026 93.071 82.8241L92.5516 82.7274C91.9597 82.6127 91.6275 82.3107 91.6275 81.8275C91.6275 81.2658 92.1167 80.8732 92.8596 80.8732C93.6267 80.8732 94.1461 81.2839 94.2005 81.9422H93.6146C93.5784 81.5557 93.2945 81.3322 92.8657 81.3322C92.4791 81.3322 92.2194 81.4953 92.2194 81.7731C92.2194 82.0328 92.3825 82.1536 92.769 82.2261L93.3126 82.3288C93.9468 82.4436 94.2488 82.7214 94.2488 83.1804ZM96.2558 84.1952C95.3498 84.1952 94.6854 83.4824 94.6854 82.5342C94.6854 81.5859 95.3498 80.8732 96.2558 80.8732C97.1618 80.8732 97.8262 81.5859 97.8262 82.5342C97.8262 83.4824 97.1618 84.1952 96.2558 84.1952ZM96.2558 83.6576C96.7812 83.6576 97.198 83.2348 97.198 82.5342C97.198 81.8335 96.7812 81.4168 96.2558 81.4168C95.7303 81.4168 95.3196 81.8335 95.3196 82.5342C95.3196 83.2348 95.7303 83.6576 96.2558 83.6576ZM101.005 80.9336L99.8034 84.1348H99.139L97.937 80.9336H98.5954L99.4833 83.4341L100.383 80.9336H101.005ZM102.655 84.1952C101.731 84.1952 101.109 83.5247 101.109 82.516C101.109 81.5678 101.755 80.8732 102.637 80.8732C103.591 80.8732 104.225 81.6463 104.117 82.6852H101.731C101.779 83.3375 102.105 83.718 102.643 83.718C103.096 83.718 103.41 83.4704 103.513 83.0536H104.117C103.96 83.7663 103.41 84.1952 102.655 84.1952ZM102.625 81.3322C102.136 81.3322 101.803 81.6825 101.737 82.2805H103.47C103.44 81.6886 103.12 81.3322 102.625 81.3322ZM105.375 82.4979V84.1348H104.765V80.9336H105.333V81.61C105.557 81.1691 106.04 80.8913 106.565 80.8913V81.5255C105.877 81.4892 105.375 81.7912 105.375 82.4979ZM108.353 84.1952C107.429 84.1952 106.807 83.5247 106.807 82.516C106.807 81.5678 107.453 80.8732 108.335 80.8732C109.289 80.8732 109.923 81.6463 109.815 82.6852H107.429C107.477 83.3375 107.803 83.718 108.341 83.718C108.794 83.718 109.108 83.4704 109.211 83.0536H109.815C109.658 83.7663 109.108 84.1952 108.353 84.1952ZM108.323 81.3322C107.833 81.3322 107.501 81.6825 107.435 82.2805H109.168C109.138 81.6886 108.818 81.3322 108.323 81.3322ZM111.206 80.1906C111.206 80.4202 111.025 80.5953 110.765 80.5953C110.505 80.5953 110.318 80.4202 110.318 80.1906C110.318 79.9551 110.505 79.786 110.765 79.786C111.025 79.786 111.206 79.9551 111.206 80.1906ZM111.073 84.1348H110.463V80.9336H111.073V84.1348ZM113.201 85.3669C112.361 85.3669 111.817 84.92 111.781 84.1952H112.373C112.409 84.6421 112.699 84.8837 113.195 84.8837C113.744 84.8837 114.034 84.5878 114.034 84.0381V83.4583C113.853 83.8448 113.49 84.0683 113.056 84.0683C112.258 84.0683 111.691 83.41 111.691 82.4677C111.691 81.5134 112.234 80.8732 113.037 80.8732C113.497 80.8732 113.859 81.0966 114.076 81.5013V80.9336H114.644V84.026C114.644 84.8656 114.107 85.3669 113.201 85.3669ZM112.307 82.4677C112.307 83.1321 112.633 83.5368 113.164 83.5368C113.684 83.5368 114.034 83.12 114.034 82.4858C114.034 81.8214 113.69 81.3986 113.164 81.3986C112.639 81.3986 112.307 81.8094 112.307 82.4677ZM116.099 82.3288V84.1348H115.489V80.9336H116.056V81.4651C116.274 81.1087 116.636 80.8732 117.077 80.8732C117.736 80.8732 118.17 81.296 118.17 82.063V84.1348H117.56V82.2684C117.56 81.7188 117.319 81.4107 116.866 81.4107C116.449 81.4107 116.099 81.761 116.099 82.3288ZM121.505 84.2012C120.629 84.2012 120.013 83.5126 120.013 82.5342C120.013 81.5678 120.641 80.8732 121.505 80.8732C122.296 80.8732 122.87 81.3986 122.985 82.2322H122.345C122.278 81.7188 121.958 81.4107 121.511 81.4107C120.986 81.4107 120.641 81.8577 120.641 82.5342C120.641 83.2167 120.986 83.6576 121.511 83.6576C121.964 83.6576 122.278 83.3556 122.351 82.8362H122.985C122.876 83.6818 122.308 84.2012 121.505 84.2012ZM124.209 82.3288V84.1348H123.599V79.798H124.209V81.447C124.42 81.1027 124.747 80.8732 125.187 80.8732C125.846 80.8732 126.281 81.296 126.281 82.063V84.1348H125.671V82.2684C125.671 81.7188 125.429 81.4107 124.976 81.4107C124.559 81.4107 124.209 81.761 124.209 82.3288ZM129.03 84.1348V83.6395C128.83 83.9958 128.474 84.1952 128.003 84.1952C127.338 84.1952 126.904 83.8146 126.904 83.2288C126.904 82.6006 127.405 82.2744 128.359 82.2744C128.546 82.2744 128.697 82.2805 128.957 82.3107V82.0751C128.957 81.6161 128.71 81.3564 128.287 81.3564C127.84 81.3564 127.568 81.6221 127.55 82.0691H126.994C127.024 81.3503 127.538 80.8732 128.287 80.8732C129.078 80.8732 129.537 81.3201 129.537 82.0812V84.1348H129.03ZM127.483 83.2106C127.483 83.5428 127.731 83.7603 128.124 83.7603C128.637 83.7603 128.957 83.4402 128.957 82.9509V82.6912C128.722 82.661 128.553 82.655 128.395 82.655C127.785 82.655 127.483 82.8362 127.483 83.2106ZM131.096 80.1906C131.096 80.4202 130.914 80.5953 130.655 80.5953C130.395 80.5953 130.208 80.4202 130.208 80.1906C130.208 79.9551 130.395 79.786 130.655 79.786C130.914 79.786 131.096 79.9551 131.096 80.1906ZM130.963 84.1348H130.353V80.9336H130.963V84.1348ZM132.42 82.3288V84.1348H131.81V80.9336H132.377V81.4651C132.595 81.1087 132.957 80.8732 133.398 80.8732C134.056 80.8732 134.491 81.296 134.491 82.063V84.1348H133.881V82.2684C133.881 81.7188 133.64 81.4107 133.187 81.4107C132.77 81.4107 132.42 81.761 132.42 82.3288ZM137.838 83.1804C137.838 83.8086 137.349 84.1952 136.497 84.1952C135.652 84.1952 135.15 83.7784 135.09 83.0898H135.676C135.7 83.4885 136.02 83.7361 136.509 83.7361C136.938 83.7361 137.222 83.5851 137.222 83.2831C137.222 83.0174 137.059 82.9026 136.66 82.8241L136.141 82.7274C135.549 82.6127 135.217 82.3107 135.217 81.8275C135.217 81.2658 135.706 80.8732 136.449 80.8732C137.216 80.8732 137.736 81.2839 137.79 81.9422H137.204C137.168 81.5557 136.884 81.3322 136.455 81.3322C136.069 81.3322 135.809 81.4953 135.809 81.7731C135.809 82.0328 135.972 82.1536 136.358 82.2261L136.902 82.3288C137.536 82.4436 137.838 82.7214 137.838 83.1804ZM141.573 83.5428V84.0804C141.385 84.165 141.222 84.1952 141.029 84.1952C140.437 84.1952 140.026 83.875 140.026 83.1684V81.453H139.32V80.9336H140.026V79.9853H140.636V80.9336H141.603V81.453H140.636V83.0294C140.636 83.4704 140.848 83.6274 141.174 83.6274C141.319 83.6274 141.446 83.6032 141.573 83.5428ZM143.437 84.1952C142.531 84.1952 141.867 83.4824 141.867 82.5342C141.867 81.5859 142.531 80.8732 143.437 80.8732C144.343 80.8732 145.008 81.5859 145.008 82.5342C145.008 83.4824 144.343 84.1952 143.437 84.1952ZM143.437 83.6576C143.963 83.6576 144.38 83.2348 144.38 82.5342C144.38 81.8335 143.963 81.4168 143.437 81.4168C142.912 81.4168 142.501 81.8335 142.501 82.5342C142.501 83.2348 142.912 83.6576 143.437 83.6576ZM19.61 91.1804C19.61 91.8086 19.1208 92.1952 18.2691 92.1952C17.4235 92.1952 16.9222 91.7784 16.8618 91.0898H17.4477C17.4718 91.4885 17.792 91.7361 18.2812 91.7361C18.71 91.7361 18.9939 91.5851 18.9939 91.2831C18.9939 91.0174 18.8308 90.9026 18.4322 90.8241L17.9128 90.7274C17.3208 90.6127 16.9886 90.3107 16.9886 89.8275C16.9886 89.2658 17.4779 88.8732 18.2208 88.8732C18.9879 88.8732 19.5073 89.2839 19.5617 89.9422H18.9758C18.9396 89.5557 18.6557 89.3322 18.2268 89.3322C17.8403 89.3322 17.5806 89.4953 17.5806 89.7731C17.5806 90.0328 17.7436 90.1536 18.1302 90.2261L18.6738 90.3288C19.308 90.4436 19.61 90.7214 19.61 91.1804ZM21.5928 92.1952C20.6686 92.1952 20.0465 91.5247 20.0465 90.516C20.0465 89.5678 20.6928 88.8732 21.5746 88.8732C22.529 88.8732 23.1632 89.6463 23.0544 90.6852H20.6686C20.717 91.3375 21.0431 91.718 21.5807 91.718C22.0337 91.718 22.3478 91.4704 22.4504 91.0536H23.0544C22.8974 91.7663 22.3478 92.1952 21.5928 92.1952ZM21.5626 89.3322C21.0733 89.3322 20.7411 89.6825 20.6747 90.2805H22.4082C22.378 89.6886 22.0578 89.3322 21.5626 89.3322ZM24.9064 92.2012C24.0306 92.2012 23.4145 91.5126 23.4145 90.5342C23.4145 89.5678 24.0427 88.8732 24.9064 88.8732C25.6977 88.8732 26.2715 89.3986 26.3862 90.2322H25.746C25.6795 89.7188 25.3594 89.4107 24.9125 89.4107C24.387 89.4107 24.0427 89.8577 24.0427 90.5342C24.0427 91.2167 24.387 91.6576 24.9125 91.6576C25.3655 91.6576 25.6795 91.3556 25.752 90.8362H26.3862C26.2775 91.6818 25.7097 92.2012 24.9064 92.2012ZM28.9995 90.818V88.9336H29.6095V92.1348H29.0418V91.6274C28.8727 91.9596 28.4982 92.1952 28.0633 92.1952C27.417 92.1952 26.9701 91.8146 26.9701 90.9932V88.9336H27.5801V90.8724C27.5801 91.4281 27.8579 91.6576 28.2566 91.6576C28.6673 91.6576 28.9995 91.3194 28.9995 90.818ZM31.0668 90.4979V92.1348H30.4567V88.9336H31.0245V89.61C31.248 89.1691 31.7312 88.8913 32.2567 88.8913V89.5255C31.5681 89.4892 31.0668 89.7912 31.0668 90.4979ZM34.0444 92.1952C33.1202 92.1952 32.4981 91.5247 32.4981 90.516C32.4981 89.5678 33.1444 88.8732 34.0262 88.8732C34.9806 88.8732 35.6148 89.6463 35.506 90.6852H33.1202C33.1686 91.3375 33.4947 91.718 34.0323 91.718C34.4853 91.718 34.7994 91.4704 34.902 91.0536H35.506C35.349 91.7663 34.7994 92.1952 34.0444 92.1952ZM34.0142 89.3322C33.5249 89.3322 33.1927 89.6825 33.1263 90.2805H34.8598C34.8296 89.6886 34.5094 89.3322 34.0142 89.3322ZM36.7707 92.1348H36.1546V87.798H36.7707V92.1348ZM40.2751 88.9336L38.6745 93.3005H38.0101L38.4691 92.0925L37.2067 88.9336H37.8651L38.7953 91.3737L39.659 88.9336H40.2751ZM44.5073 91.1804C44.5073 91.8086 44.0181 92.1952 43.1664 92.1952C42.3208 92.1952 41.8195 91.7784 41.7591 91.0898H42.345C42.3691 91.4885 42.6893 91.7361 43.1785 91.7361C43.6073 91.7361 43.8912 91.5851 43.8912 91.2831C43.8912 91.0174 43.7281 90.9026 43.3295 90.8241L42.8101 90.7274C42.2181 90.6127 41.8859 90.3107 41.8859 89.8275C41.8859 89.2658 42.3752 88.8732 43.1181 88.8732C43.8852 88.8732 44.4046 89.2839 44.459 89.9422H43.8731C43.8369 89.5557 43.553 89.3322 43.1241 89.3322C42.7376 89.3322 42.4779 89.4953 42.4779 89.7731C42.4779 90.0328 42.6409 90.1536 43.0275 90.2261L43.5711 90.3288C44.2053 90.4436 44.5073 90.7214 44.5073 91.1804ZM45.7834 90.3288V92.1348H45.1733V87.798H45.7834V89.447C45.9948 89.1027 46.3209 88.8732 46.7619 88.8732C47.4202 88.8732 47.8551 89.296 47.8551 90.063V92.1348H47.2451V90.2684C47.2451 89.7188 47.0035 89.4107 46.5505 89.4107C46.1337 89.4107 45.7834 89.761 45.7834 90.3288ZM50.6041 92.1348V91.6395C50.4047 91.9958 50.0484 92.1952 49.5773 92.1952C48.9129 92.1952 48.478 91.8146 48.478 91.2288C48.478 90.6006 48.9793 90.2744 49.9336 90.2744C50.1209 90.2744 50.2719 90.2805 50.5316 90.3107V90.0751C50.5316 89.6161 50.2839 89.3564 49.8611 89.3564C49.4142 89.3564 49.1424 89.6221 49.1243 90.0691H48.5686C48.5988 89.3503 49.1122 88.8732 49.8611 88.8732C50.6524 88.8732 51.1114 89.3201 51.1114 90.0812V92.1348H50.6041ZM49.0578 91.2106C49.0578 91.5428 49.3055 91.7603 49.6981 91.7603C50.2115 91.7603 50.5316 91.4402 50.5316 90.9509V90.6912C50.296 90.661 50.1269 90.655 49.9699 90.655C49.3598 90.655 49.0578 90.8362 49.0578 91.2106ZM52.5371 90.4979V92.1348H51.9271V88.9336H52.4948V89.61C52.7183 89.1691 53.2015 88.8913 53.727 88.8913V89.5255C53.0384 89.4892 52.5371 89.7912 52.5371 90.4979ZM55.5147 92.1952C54.5906 92.1952 53.9684 91.5247 53.9684 90.516C53.9684 89.5678 54.6147 88.8732 55.4966 88.8732C56.4509 88.8732 57.0851 89.6463 56.9764 90.6852H54.5906C54.6389 91.3375 54.965 91.718 55.5026 91.718C55.9556 91.718 56.2697 91.4704 56.3724 91.0536H56.9764C56.8193 91.7663 56.2697 92.1952 55.5147 92.1952ZM55.4845 89.3322C54.9952 89.3322 54.663 89.6825 54.5966 90.2805H56.3301C56.2999 89.6886 55.9798 89.3322 55.4845 89.3322ZM59.5033 92.1348H58.8872V87.798H59.5033V92.1348ZM61.093 88.1906C61.093 88.4202 60.9118 88.5953 60.652 88.5953C60.3923 88.5953 60.2051 88.4202 60.2051 88.1906C60.2051 87.9551 60.3923 87.786 60.652 87.786C60.9118 87.786 61.093 87.9551 61.093 88.1906ZM60.9601 92.1348H60.35V88.9336H60.9601V92.1348ZM61.5774 90.5342C61.5774 89.5678 62.1331 88.8732 62.9968 88.8732C63.4559 88.8732 63.8424 89.1087 64.0659 89.5255V88.9336H64.6337V93.3005H64.0236V91.5912C63.7941 91.9777 63.4257 92.1952 62.9968 92.1952C62.1331 92.1952 61.5774 91.5006 61.5774 90.5342ZM62.2116 90.5342C62.2116 91.2529 62.5861 91.6516 63.1176 91.6516C63.6371 91.6516 64.0236 91.2408 64.0236 90.5342C64.0236 89.8154 63.631 89.4107 63.1176 89.4107C62.5861 89.4107 62.2116 89.8154 62.2116 90.5342ZM67.4809 90.818V88.9336H68.091V92.1348H67.5232V91.6274C67.3541 91.9596 66.9796 92.1952 66.5447 92.1952C65.8984 92.1952 65.4515 91.8146 65.4515 90.9932V88.9336H66.0615V90.8724C66.0615 91.4281 66.3394 91.6576 66.738 91.6576C67.1487 91.6576 67.4809 91.3194 67.4809 90.818ZM69.6811 88.1906C69.6811 88.4202 69.4999 88.5953 69.2402 88.5953C68.9804 88.5953 68.7932 88.4202 68.7932 88.1906C68.7932 87.9551 68.9804 87.786 69.2402 87.786C69.4999 87.786 69.6811 87.9551 69.6811 88.1906ZM69.5482 92.1348H68.9382V88.9336H69.5482V92.1348ZM70.1656 90.5342C70.1656 89.5617 70.7212 88.8732 71.585 88.8732C72.0138 88.8732 72.3883 89.0906 72.6118 89.4832V87.798H73.2218V92.1348H72.654V91.561C72.4245 91.9656 72.038 92.1952 71.585 92.1952C70.7212 92.1952 70.1656 91.4945 70.1656 90.5342ZM70.7998 90.5342C70.7998 91.2469 71.1742 91.6516 71.7058 91.6516C72.2252 91.6516 72.6118 91.2288 72.6118 90.5221C72.6118 89.8033 72.2131 89.4107 71.7058 89.4107C71.1742 89.4107 70.7998 89.8094 70.7998 90.5342ZM74.8127 88.1906C74.8127 88.4202 74.6315 88.5953 74.3718 88.5953C74.1121 88.5953 73.9248 88.4202 73.9248 88.1906C73.9248 87.9551 74.1121 87.786 74.3718 87.786C74.6315 87.786 74.8127 87.9551 74.8127 88.1906ZM74.6798 92.1348H74.0698V88.9336H74.6798V92.1348ZM77.3327 91.5428V92.0804C77.1454 92.165 76.9823 92.1952 76.7891 92.1952C76.1971 92.1952 75.7864 91.875 75.7864 91.1684V89.453H75.0797V88.9336H75.7864V87.9853H76.3965V88.9336H77.3629V89.453H76.3965V91.0294C76.3965 91.4704 76.6079 91.6274 76.934 91.6274C77.079 91.6274 77.2058 91.6032 77.3327 91.5428ZM80.6027 88.9336L79.0021 93.3005H78.3377L78.7967 92.0925L77.5344 88.9336H78.1927L79.1229 91.3737L79.9866 88.9336H80.6027ZM81.4681 91.875C81.4681 92.4488 81.0151 92.8958 80.3507 92.9079V92.5636C80.7433 92.5515 81.0091 92.3401 81.0453 92.0442C80.991 92.0623 80.9547 92.0683 80.9125 92.0683C80.6829 92.0683 80.5138 91.8811 80.5138 91.6576C80.5138 91.3979 80.7071 91.2288 80.9547 91.2288C81.2869 91.2288 81.4681 91.4704 81.4681 91.875ZM85.4711 90.818V88.9336H86.0812V92.1348H85.5134V91.6274C85.3443 91.9596 84.9698 92.1952 84.5349 92.1952C83.8887 92.1952 83.4417 91.8146 83.4417 90.9932V88.9336H84.0517V90.8724C84.0517 91.4281 84.3296 91.6576 84.7282 91.6576C85.1389 91.6576 85.4711 91.3194 85.4711 90.818ZM89.4652 91.1804C89.4652 91.8086 88.976 92.1952 88.1243 92.1952C87.2787 92.1952 86.7774 91.7784 86.717 91.0898H87.3029C87.327 91.4885 87.6472 91.7361 88.1364 91.7361C88.5652 91.7361 88.8491 91.5851 88.8491 91.2831C88.8491 91.0174 88.686 90.9026 88.2874 90.8241L87.768 90.7274C87.176 90.6127 86.8438 90.3107 86.8438 89.8275C86.8438 89.2658 87.3331 88.8732 88.076 88.8732C88.8431 88.8732 89.3625 89.2839 89.4169 89.9422H88.831C88.7948 89.5557 88.5109 89.3322 88.082 89.3322C87.6955 89.3322 87.4358 89.4953 87.4358 89.7731C87.4358 90.0328 87.5988 90.1536 87.9854 90.2261L88.529 90.3288C89.1632 90.4436 89.4652 90.7214 89.4652 91.1804ZM91.448 92.1952C90.5238 92.1952 89.9017 91.5247 89.9017 90.516C89.9017 89.5678 90.548 88.8732 91.4298 88.8732C92.3842 88.8732 93.0184 89.6463 92.9096 90.6852H90.5238C90.5722 91.3375 90.8983 91.718 91.4359 91.718C91.8889 91.718 92.203 91.4704 92.3056 91.0536H92.9096C92.7526 91.7663 92.203 92.1952 91.448 92.1952ZM91.4178 89.3322C90.9285 89.3322 90.5963 89.6825 90.5299 90.2805H92.2634C92.2332 89.6886 91.913 89.3322 91.4178 89.3322ZM94.1683 90.4979V92.1348H93.5582V88.9336H94.126V89.61C94.3495 89.1691 94.8327 88.8913 95.3582 88.8913V89.5255C94.6696 89.4892 94.1683 89.7912 94.1683 90.4979ZM98.3777 91.1804C98.3777 91.8086 97.8885 92.1952 97.0368 92.1952C96.1912 92.1952 95.6899 91.7784 95.6295 91.0898H96.2154C96.2396 91.4885 96.5597 91.7361 97.0489 91.7361C97.4778 91.7361 97.7616 91.5851 97.7616 91.2831C97.7616 91.0174 97.5986 90.9026 97.1999 90.8241L96.6805 90.7274C96.0886 90.6127 95.7564 90.3107 95.7564 89.8275C95.7564 89.2658 96.2456 88.8732 96.9885 88.8732C97.7556 88.8732 98.275 89.2839 98.3294 89.9422H97.7435C97.7073 89.5557 97.4234 89.3322 96.9946 89.3322C96.608 89.3322 96.3483 89.4953 96.3483 89.7731C96.3483 90.0328 96.5114 90.1536 96.8979 90.2261L97.4415 90.3288C98.0757 90.4436 98.3777 90.7214 98.3777 91.1804ZM99.8713 91.875C99.8713 92.4488 99.4183 92.8958 98.7539 92.9079V92.5636C99.1465 92.5515 99.4122 92.3401 99.4485 92.0442C99.3941 92.0623 99.3579 92.0683 99.3156 92.0683C99.0861 92.0683 98.9169 91.8811 98.9169 91.6576C98.9169 91.3979 99.1102 91.2288 99.3579 91.2288C99.6901 91.2288 99.8713 91.4704 99.8713 91.875ZM103.814 92.1348V91.6395C103.615 91.9958 103.258 92.1952 102.787 92.1952C102.123 92.1952 101.688 91.8146 101.688 91.2288C101.688 90.6006 102.189 90.2744 103.143 90.2744C103.331 90.2744 103.482 90.2805 103.741 90.3107V90.0751C103.741 89.6161 103.494 89.3564 103.071 89.3564C102.624 89.3564 102.352 89.6221 102.334 90.0691H101.778C101.809 89.3503 102.322 88.8732 103.071 88.8732C103.862 88.8732 104.321 89.3201 104.321 90.0812V92.1348H103.814ZM102.268 91.2106C102.268 91.5428 102.515 91.7603 102.908 91.7603C103.421 91.7603 103.741 91.4402 103.741 90.9509V90.6912C103.506 90.661 103.337 90.655 103.18 90.655C102.57 90.655 102.268 90.8362 102.268 91.2106ZM105.747 90.3288V92.1348H105.137V88.9336H105.705V89.4651C105.922 89.1087 106.284 88.8732 106.725 88.8732C107.384 88.8732 107.819 89.296 107.819 90.063V92.1348H107.209V90.2684C107.209 89.7188 106.967 89.4107 106.514 89.4107C106.097 89.4107 105.747 89.761 105.747 90.3288ZM108.399 90.5342C108.399 89.5617 108.955 88.8732 109.819 88.8732C110.247 88.8732 110.622 89.0906 110.845 89.4832V87.798H111.455V92.1348H110.888V91.561C110.658 91.9656 110.272 92.1952 109.819 92.1952C108.955 92.1952 108.399 91.4945 108.399 90.5342ZM109.033 90.5342C109.033 91.2469 109.408 91.6516 109.939 91.6516C110.459 91.6516 110.845 91.2288 110.845 90.5221C110.845 89.8033 110.447 89.4107 109.939 89.4107C109.408 89.4107 109.033 89.8094 109.033 90.5342ZM116.103 91.1804C116.103 91.8086 115.613 92.1952 114.762 92.1952C113.916 92.1952 113.415 91.7784 113.354 91.0898H113.94C113.964 91.4885 114.284 91.7361 114.774 91.7361C115.203 91.7361 115.486 91.5851 115.486 91.2831C115.486 91.0174 115.323 90.9026 114.925 90.8241L114.405 90.7274C113.813 90.6127 113.481 90.3107 113.481 89.8275C113.481 89.2658 113.97 88.8732 114.713 88.8732C115.48 88.8732 116 89.2839 116.054 89.9422H115.468C115.432 89.5557 115.148 89.3322 114.719 89.3322C114.333 89.3322 114.073 89.4953 114.073 89.7731C114.073 90.0328 114.236 90.1536 114.623 90.2261L115.166 90.3288C115.801 90.4436 116.103 90.7214 116.103 91.1804ZM118.533 91.5428V92.0804C118.346 92.165 118.183 92.1952 117.99 92.1952C117.398 92.1952 116.987 91.875 116.987 91.1684V89.453H116.28V88.9336H116.987V87.9853H117.597V88.9336H118.563V89.453H117.597V91.0294C117.597 91.4704 117.808 91.6274 118.135 91.6274C118.28 91.6274 118.406 91.6032 118.533 91.5428ZM121.084 92.1348V91.6395C120.885 91.9958 120.529 92.1952 120.058 92.1952C119.393 92.1952 118.958 91.8146 118.958 91.2288C118.958 90.6006 119.46 90.2744 120.414 90.2744C120.601 90.2744 120.752 90.2805 121.012 90.3107V90.0751C121.012 89.6161 120.764 89.3564 120.342 89.3564C119.895 89.3564 119.623 89.6221 119.605 90.0691H119.049C119.079 89.3503 119.593 88.8732 120.342 88.8732C121.133 88.8732 121.592 89.3201 121.592 90.0812V92.1348H121.084ZM119.538 91.2106C119.538 91.5428 119.786 91.7603 120.178 91.7603C120.692 91.7603 121.012 91.4402 121.012 90.9509V90.6912C120.776 90.661 120.607 90.655 120.45 90.655C119.84 90.655 119.538 90.8362 119.538 91.2106ZM124.184 91.5428V92.0804C123.997 92.165 123.834 92.1952 123.64 92.1952C123.048 92.1952 122.638 91.875 122.638 91.1684V89.453H121.931V88.9336H122.638V87.9853H123.248V88.9336H124.214V89.453H123.248V91.0294C123.248 91.4704 123.459 91.6274 123.785 91.6274C123.93 91.6274 124.057 91.6032 124.184 91.5428ZM126.025 92.1952C125.1 92.1952 124.478 91.5247 124.478 90.516C124.478 89.5678 125.125 88.8732 126.006 88.8732C126.961 88.8732 127.595 89.6463 127.486 90.6852H125.1C125.149 91.3375 125.475 91.718 126.013 91.718C126.466 91.718 126.78 91.4704 126.882 91.0536H127.486C127.329 91.7663 126.78 92.1952 126.025 92.1952ZM125.994 89.3322C125.505 89.3322 125.173 89.6825 125.107 90.2805H126.84C126.81 89.6886 126.49 89.3322 125.994 89.3322Z" fill="white"/>
</g>
<defs>
<clipPath id="clip0_2327_35808">
<rect width="302" height="136" fill="white"/>
</clipPath>
<clipPath id="clip1_2327_35808">
<rect width="8.05333" height="8.05333" fill="white" transform="translate(198.756 116.145)"/>
</clipPath>
<clipPath id="clip2_2327_35808">
<rect width="8.05333" height="8.05333" fill="white" transform="translate(278.803 96.1191)"/>
</clipPath>
<clipPath id="clip3_2327_35808">
<rect width="8.05333" height="8.05333" fill="white" transform="translate(266.846 56.0684) rotate(90)"/>
</clipPath>
</defs>
</svg>